<svg width="32" height="32" viewBox="0 0 40 40" fill="none" xmlns="http://www.w3.org/2000/svg">
<path fill-rule="evenodd" clip-rule="evenodd" d="M1.66797 4.72935C1.66797 3.91691 1.99071 3.13774 2.5652 2.56325C3.13969 1.98876 3.91886 1.66602 4.7313 1.66602H35.268C35.6706 1.66536 36.0694 1.74412 36.4415 1.8978C36.8137 2.05147 37.1519 2.27704 37.4367 2.56158C37.7216 2.84612 37.9475 3.18406 38.1016 3.55604C38.2557 3.92801 38.3349 4.32673 38.3346 4.72935V35.266C38.3351 35.6687 38.2561 36.0676 38.1022 36.4397C37.9484 36.8119 37.7227 37.15 37.438 37.4349C37.1533 37.7197 36.8153 37.9456 36.4432 38.0997C36.0711 38.2537 35.6723 38.3329 35.2696 38.3327H4.7313C4.32888 38.3327 3.9304 38.2534 3.55863 38.0993C3.18686 37.9453 2.84909 37.7195 2.56461 37.4349C2.28013 37.1502 2.05452 36.8123 1.90067 36.4405C1.74682 36.0686 1.66775 35.6701 1.66797 35.2677V4.72935ZM16.1813 15.646H21.1463V18.1394C21.863 16.706 23.6963 15.416 26.4513 15.416C31.733 15.416 32.9846 18.271 32.9846 23.5094V33.2127H27.6396V24.7027C27.6396 21.7194 26.923 20.036 25.103 20.036C22.578 20.036 21.528 21.851 21.528 24.7027V33.2127H16.1813V15.646ZM7.01464 32.9844H12.3613V15.416H7.01464V32.9844ZM13.1263 9.68602C13.1364 10.1438 13.0549 10.599 12.8867 11.0249C12.7185 11.4508 12.4669 11.8387 12.1467 12.1661C11.8265 12.4934 11.4441 12.7535 11.0221 12.931C10.6 13.1086 10.1467 13.2 9.6888 13.2C9.2309 13.2 8.77762 13.1086 8.35554 12.931C7.93347 12.7535 7.55112 12.4934 7.23092 12.1661C6.91072 11.8387 6.65912 11.4508 6.4909 11.0249C6.32268 10.599 6.24122 10.1438 6.2513 9.68602C6.27109 8.78744 6.64194 7.93234 7.28444 7.30383C7.92695 6.67532 8.79001 6.32338 9.6888 6.32338C10.5876 6.32338 11.4507 6.67532 12.0932 7.30383C12.7357 7.93234 13.1065 8.78744 13.1263 9.68602Z" fill="black"/>
</svg>
