<svg width="600" height="400" viewBox="0 0 600 400" fill="none" xmlns="http://www.w3.org/2000/svg">
<path d="M150.564 175.016C144.094 175.016 139.166 177.582 135.781 182.706V158.695H122.391V224.338H135.79V199.016C135.79 195.205 136.735 192.334 138.605 190.386C140.484 188.447 142.906 187.477 145.861 187.477C148.629 187.477 150.882 188.466 152.603 190.433C154.333 192.401 155.193 195.328 155.193 199.197V224.329H168.593V194.882C168.593 188.694 166.881 183.827 163.468 180.291C160.037 176.784 155.735 175.016 150.564 175.016Z" fill="#7A4FFF"/>
<path d="M475.168 195.065C471.693 194.01 469.348 193.003 468.142 192.043C466.927 191.082 466.334 190.019 466.334 188.842C466.334 187.853 466.824 186.997 467.813 186.29C468.811 185.584 470.205 185.227 472.004 185.227C473.925 185.227 475.912 185.679 477.956 186.573C480.009 187.467 481.385 188.183 482.1 188.71C482.807 189.237 483.353 189.68 483.73 190.056L489.503 181.329L488.759 180.68C488.203 180.303 487.365 179.813 486.244 179.192C485.124 178.571 483.89 177.968 482.515 177.375C481.149 176.791 479.473 176.292 477.495 175.897C475.507 175.492 473.52 175.285 471.542 175.285C465.835 175.285 461.333 176.66 458.046 179.418C454.759 182.176 453.11 185.528 453.11 189.491C453.11 192.843 454.241 195.733 456.501 198.181C458.761 200.628 462.039 202.53 466.315 203.895C470.412 205.194 473.143 206.371 474.5 207.426C475.865 208.48 476.553 209.685 476.553 211.05C476.553 212.227 476.007 213.206 474.923 213.978C473.84 214.75 472.371 215.136 470.506 215.136C468.274 215.136 465.929 214.627 463.48 213.601C461.031 212.575 459.402 211.756 458.592 211.135C457.782 210.513 457.132 209.986 456.633 209.553L450.859 218.101L451.698 218.751C452.253 219.25 453.12 219.843 454.307 220.511C455.484 221.189 456.821 221.895 458.309 222.601C459.797 223.317 461.643 223.901 463.847 224.362C466.051 224.823 468.293 225.059 470.591 225.059C476.6 225.059 481.319 223.656 484.728 220.831C488.138 218.017 489.842 214.373 489.842 209.92C489.842 206.569 488.571 203.603 486.028 200.996C483.513 198.407 479.878 196.42 475.168 195.065Z" fill="#7A4FFF"/>
<path d="M59.5859 171.174H78.5149V224.338H92.6248V171.164H111.563V158.695H59.5859V171.174Z" fill="#7A4FFF"/>
<path d="M203.477 175.285C196.042 175.285 189.812 177.704 184.787 182.531C179.771 187.359 177.258 193.297 177.258 200.365C177.258 207.423 179.695 213.305 184.561 218C189.426 222.706 195.572 225.059 203.016 225.059C210.46 225.059 216.681 222.631 221.706 217.775C226.722 212.919 229.235 206.962 229.235 199.904C229.235 192.846 226.798 186.983 221.932 182.306C217.067 177.628 210.912 175.285 203.477 175.285ZM212.173 209.088C209.792 211.507 206.799 212.712 203.204 212.712C199.666 212.712 196.71 211.498 194.32 209.088C191.93 206.67 190.744 203.706 190.744 200.177C190.744 196.648 191.939 193.674 194.32 191.265C196.71 188.846 199.666 187.641 203.195 187.641C206.79 187.641 209.782 188.855 212.173 191.265C214.554 193.674 215.749 196.648 215.749 200.177C215.749 203.706 214.554 206.679 212.173 209.088Z" fill="#7A4FFF"/>
<path d="M437.142 164.465C434.326 145.831 429.25 127.547 421.905 110.207C416.321 97.1543 409.522 84.6403 401.659 72.8535H396.715C410.803 100.573 420.37 131.523 424.297 164.465H437.142Z" fill="#7A4FFF"/>
<path d="M541.818 200.555C541.62 200.471 541.432 200.377 541.235 200.293L513.27 181.777L513.28 181.796L513.261 181.777C515.93 187.483 517.424 193.846 517.424 200.555C517.424 207.528 515.817 214.134 512.941 220.009L541.808 200.677L541.695 200.602L541.818 200.555Z" fill="#7A4FFF"/>
<path d="M397.082 204.476C397.082 194.21 401.756 189.087 411.085 189.087H413.856L414.043 175.285C405.562 175.285 399.666 178.707 396.345 185.542L395.608 176.212H383.723V224.337H397.091V204.476H397.082Z" fill="#7A4FFF"/>
<path d="M396.715 326.049H401.66C409.515 314.354 416.325 301.937 421.901 288.986C429.248 271.781 434.325 253.638 437.142 235.158H424.303C420.376 267.845 410.806 298.554 396.715 326.049Z" fill="#7A4FFF"/>
<path d="M425.155 175.285C425.751 182.697 426.073 190.195 426.073 197.777C426.073 206.503 425.663 215.116 424.871 223.616H438.418C439.445 215.041 439.992 206.409 440.031 197.777C439.992 190.27 439.581 182.764 438.8 175.285H425.155Z" fill="#7A4FFF"/>
<path d="M349.095 207.654L338.043 176.008H323.091L341.934 223.106C340.515 226.069 338.156 227.541 334.876 227.541C331.531 227.541 328.993 226.866 327.264 225.506L323.082 236.336L324.473 237.077C325.403 237.63 326.907 238.174 328.974 238.699C331.051 239.224 333.232 239.487 335.515 239.487C344.622 239.487 351.181 234.395 355.204 224.222L374.337 176.017H360.128L349.095 207.654Z" fill="#7A4FFF"/>
<path d="M298.821 175.285C295.211 175.285 291.961 176.164 289.07 177.903L288.135 178.507C286.009 179.991 284.299 181.919 283.014 184.309L282.494 185.358V185.368C281.068 182.136 278.951 179.651 276.145 177.912C273.348 176.173 270.174 175.304 266.621 175.304C259.772 175.304 254.641 178.035 251.221 183.506L250.664 176.23H238.617V224.337H252.156V198.795C252.156 195.129 253.073 192.36 254.915 190.499C256.748 188.637 259.063 187.702 261.869 187.702C264.543 187.702 266.706 188.666 268.36 190.593C270.004 192.521 270.835 195.412 270.835 199.258V224.337H284.374V198.795C284.374 195.129 285.291 192.36 287.124 190.499C288.966 188.637 291.281 187.702 294.078 187.702C296.751 187.702 298.915 188.666 300.568 190.593C302.212 192.521 303.044 195.412 303.044 199.258V224.337H316.583V194.874C316.583 188.779 314.92 183.998 311.585 180.52C308.231 177.024 303.989 175.285 298.821 175.285Z" fill="#7A4FFF"/>
</svg>
